<?xml version="1.0" encoding="UTF-8"?>
<svg width="80px" height="80px" viewBox="0 0 80 80" version="1.1" xmlns="http://www.w3.org/2000/svg" xmlns:xlink="http://www.w3.org/1999/xlink">
    <title>Icons/filter Copy 2</title>
    <g id="Icons/filter-Copy-2" stroke="none" stroke-width="1" fill="none" fill-rule="evenodd">
        <path d="M77.5534247,46.2671233 L72.8668493,43.5613699 C72.9931507,42.3890411 73.059726,41.1991781 73.059726,39.9942466 C73.059726,38.7893151 72.9931507,37.5991781 72.8668493,36.4268493 L77.5534247,33.7210959 C78.5547945,33.1430137 79.2712329,32.2090411 79.5706849,31.0915068 C79.869863,29.9742466 79.7161644,28.8071233 79.1378082,27.8054795 L70.1219178,12.1887671 C69.350411,10.8523288 67.9117808,10.0224658 66.3671233,10.0224658 C65.6112329,10.0224658 64.8643836,10.2235616 64.2063014,10.6032877 L59.5063014,13.3169863 C57.5958904,11.9158904 55.5309589,10.7150685 53.3410959,9.74520548 L53.3410959,4.33068493 C53.3410959,1.94273973 51.3983562,0 49.0106849,0 L30.9778082,0 C28.589863,0 26.6471233,1.94273973 26.6471233,4.33068493 L26.6471233,9.74520548 C24.4572603,10.7150685 22.3920548,11.9161644 20.4819178,13.3172603 L15.7819178,10.6038356 C15.1241096,10.2238356 14.3769863,10.0227397 13.6210959,10.0227397 C12.0764384,10.0227397 10.6378082,10.8526027 9.86630137,12.1890411 L0.850136986,27.8054795 C0.271780822,28.8068493 0.118082192,29.9742466 0.417260274,31.0915068 C0.716986301,32.2090411 1.43315068,33.1427397 2.43452055,33.7210959 L7.12109589,36.4268493 C6.99479452,37.5991781 6.92821918,38.7890411 6.92821918,39.9942466 C6.92821918,41.1994521 6.99479452,42.3893151 7.12109589,43.5613699 L2.43452055,46.2671233 C1.43315068,46.8452055 0.716986301,47.7789041 0.417260274,48.8967123 C0.118082192,50.0139726 0.271780822,51.1813699 0.850136986,52.1827397 L9.8660274,67.7994521 C10.6375342,69.1358904 12.0761644,69.9657534 13.6208219,69.9657534 C14.3767123,69.9657534 15.1235616,69.7649315 15.7816438,69.3849315 L20.4816438,66.6712329 C22.3920548,68.0723288 24.4569863,69.2731507 26.6468493,70.2430137 L26.6468493,75.6578082 C26.6468493,76.8145205 27.0972603,77.9016438 27.9156164,78.719726 C28.7334247,79.5375342 29.8210959,79.9882192 30.9775342,79.9882192 L49.010411,79.9882192 C51.3980822,79.9882192 53.3410959,78.0457534 53.3410959,75.6578082 L53.3410959,70.2430137 C55.5306849,69.2728767 57.5958904,68.0723288 59.5060274,66.6712329 L64.2063014,69.3846575 C64.8641096,69.7646575 65.6112329,69.9654795 66.3671233,69.9654795 C67.9117808,69.9654795 69.350411,69.1356164 70.1219178,67.7991781 L79.1378082,52.1824658 C79.7161644,51.1810959 79.869863,50.0136986 79.5706849,48.8964384 C79.2712329,47.7789041 78.5550685,46.8452055 77.5534247,46.2671233 Z M39.9942466,55.2515068 C31.5679452,55.2515068 24.7369863,48.420274 24.7369863,39.9942466 C24.7369863,31.5682192 31.5682192,24.7369863 39.9942466,24.7369863 C48.420274,24.7369863 55.2515068,31.5682192 55.2515068,39.9942466 C55.2515068,48.420274 48.420274,55.2515068 39.9942466,55.2515068 Z" id="Shape" fill="#999999" fill-rule="nonzero"></path>
    </g>
</svg>
