<?xml version="1.0" encoding="UTF-8"?>
<svg width="80px" height="80px" viewBox="0 0 80 80" version="1.1" xmlns="http://www.w3.org/2000/svg" xmlns:xlink="http://www.w3.org/1999/xlink">
    <title>Icons/arrrr2</title>
    <defs>
        <path d="M16.6569902,44.2267696 L13.8814284,41.4489234 C12.7061905,40.2727183 12.7061905,38.3707695 13.8814284,37.2070772 L38.1738452,12.8821539 C39.349083,11.7059487 41.2494677,11.7059487 42.412203,12.8821539 L66.7046198,37.1945644 C67.8798577,38.3707695 67.8798577,40.2727183 66.7046198,41.4364106 L63.929058,44.2142568 C62.7413176,45.4029747 60.8034254,45.3779491 59.6406901,44.1642055 L45.3002876,29.0987694 L45.3002876,65.060616 C45.3002876,66.7248211 43.9625168,68.063693 42.2996802,68.063693 L38.2988705,68.063693 C36.6360339,68.063693 35.2982632,66.7248211 35.2982632,65.060616 L35.2982632,29.0987694 L20.9453581,44.1767183 C19.7826228,45.4029747 17.8447306,45.4280004 16.6569902,44.2267696 Z" id="path-1"></path>
    </defs>
    <g id="Icons/arrrr2" stroke="none" stroke-width="1" fill="none" fill-rule="evenodd">
        <mask id="mask-2" fill="white">
            <use xlink:href="#path-1"></use>
        </mask>
        <use id="Mask" fill="#666666" fill-rule="nonzero" xlink:href="#path-1"></use>
    </g>
</svg>
