<svg width="24" height="24" viewBox="0 0 24 24" fill="none" xmlns="http://www.w3.org/2000/svg">
	<path fill-rule="evenodd" clip-rule="evenodd" d="M23.5202 17.5973L15.112 2.74105C13.7386 0.286839 10.2657 0.286839 8.89725 2.74105L0.484103 17.5973C-0.889271 20.0515 0.820036 23.1004 3.59149 23.1004H20.3832C23.1547 23.1004 24.8936 20.0213 23.5202 17.5973ZM11.9996 19.8044C11.2685 19.8044 10.6608 19.1846 10.6608 18.4388C10.6608 17.6929 11.2685 17.0731 11.9996 17.0731C12.7308 17.0731 13.3384 17.6929 13.3088 18.474C13.3434 19.1846 12.7011 19.8044 11.9996 19.8044ZM13.1285 12.5604C13.1593 12.0325 13.1902 11.5045 13.2199 10.9753C13.2345 10.6386 13.2577 10.3006 13.2809 9.96133C13.3046 9.61525 13.3284 9.26789 13.3434 8.91924C13.3434 8.66727 13.3137 8.45058 13.2199 8.23388C12.9432 7.61403 12.3059 7.30158 11.6637 7.45781C11.0215 7.64427 10.6263 8.23388 10.6263 8.94948C10.6587 9.35635 10.6868 9.76766 10.7147 10.1751L10.7201 10.2547C10.7646 11.0786 10.8103 11.895 10.856 12.7114C10.9017 13.5278 10.9474 14.3442 10.9918 15.1682C11.0264 15.7275 11.4513 16.1307 11.9996 16.1307C12.548 16.1307 12.9778 15.6973 13.0074 15.1379V15.1379C13.0074 14.8003 13.0074 14.4878 13.0371 14.1451C13.0667 13.6161 13.0976 13.0882 13.1285 12.5604Z" fill="white"/>
</svg>
