<svg width="16" height="16" viewBox="0 0 16 16" fill="none" xmlns="http://www.w3.org/2000/svg">
    <path fill-rule="evenodd" clip-rule="evenodd"
          d="M14.2 0H1.8C0.7675 0 0 0.7675 0 1.8V14.2C0 15.2325 0.7675 16 1.8 16H14.2C15.2325 16 16 15.2325 16 14.2V1.8C16 0.7675 15.2325 0 14.2 0ZM14.4 14.4H1.8V1.8H14.4V14.4ZM6.8 11.8L12.8 5.8C13.041 5.58054 13.0421 5.30859 12.8 5.2L12 4.4C11.9109 4.15861 11.6412 4.15754 11.4 4.4L6.4 9.4L4.4 7.2C4.16907 7.01736 3.89939 7.01629 3.8 7.2L3 8C2.75895 8.15704 2.75788 8.42899 3 8.6L6.2 11.8C6.31141 12.0414 6.5811 12.0425 6.8 11.8Z"
          fill="#4D4D4D"/>
</svg>
