<?xml version="1.0" encoding="UTF-8"?>
<svg width="80px" height="80px" viewBox="0 0 80 80" version="1.1" xmlns="http://www.w3.org/2000/svg" xmlns:xlink="http://www.w3.org/1999/xlink">
    <title>Icons/Cloud1 Copy</title>
    <defs>
        <path d="M67.2,36.325 C74.5,37.8 80,44.2625 80,52 C80,60.8375 72.8375,68 64,68 L18,68 C8.0625,68 0,59.9375 0,50 C0,42.15 5.025,35.475 12.025,33.0125 C12.0125,32.675 12,32.3375 12,32 C12,20.95 20.95,12 32,12 C39.4125,12 45.875,16.025 49.3375,22.025 C51.2375,20.75 53.5375,20 56,20 C62.625,20 68,25.375 68,32 C68,33.525 67.7125,34.9875 67.2,36.325 Z M57.5060573,35.9522524 C58.1609643,35.3097753 58.1651401,34.2638057 57.5155225,33.6159598 L54.3786505,30.4885133 C53.7290329,29.840805 52.6714382,29.8366751 52.0165313,30.4791521 L32.3412057,49.7818214 L24.0185285,41.4838597 C23.3689109,40.8360138 22.3113162,40.8318839 21.6564092,41.4743609 L18.4940647,44.5767526 C17.8390186,45.2193673 17.8348428,46.2653369 18.4844604,46.9130452 L31.120615,59.5114867 C31.7702326,60.159195 32.8278273,60.1633249 33.4827342,59.5208479 L57.5060573,35.9522524 Z" id="path-1"></path>
    </defs>
    <g id="Icons/Cloud1-Copy" stroke="none" stroke-width="1" fill="none" fill-rule="evenodd">
        <mask id="mask-2" fill="white">
            <use xlink:href="#path-1"></use>
        </mask>
        <use id="Mask" fill="#000000" fill-rule="nonzero" xlink:href="#path-1"></use>
    </g>
</svg>