<?xml version="1.0" encoding="UTF-8"?>
<svg width="80px" height="80px" viewBox="0 0 80 80" version="1.1" xmlns="http://www.w3.org/2000/svg" xmlns:xlink="http://www.w3.org/1999/xlink">
    <title>Icons/Cloud2</title>
    <defs>
        <path d="M67.2,36.325 C67.7125,34.9875 68,33.525 68,32 C68,25.375 62.625,20 56,20 C53.5375,20 51.2375,20.75 49.3375,22.025 C45.875,16.025 39.4125,12 32,12 C20.95,12 12,20.95 12,32 C12,32.3375 12.0125,32.675 12.025,33.0125 C5.025,35.475 0,42.15 0,50 C0,59.9375 8.0625,68 18,68 L64,68 C72.8375,68 80,60.8375 80,52 C80,44.2625 74.5,37.8 67.2,36.325 Z M49.0211655,44.0814019 L40.9424329,44.0814019 L40.9424329,58.0101752 C40.9424329,59.1045789 40.0530312,60 38.9659846,60 L33.0366397,60 C31.9495931,60 31.0601913,59.1045789 31.0601913,58.0101752 L31.0601913,44.0814019 L22.9814588,44.0814019 C21.2150081,44.0814019 20.3379592,41.9423403 21.5855922,40.6862634 L34.6054455,27.5782928 C35.3713192,26.8072357 36.631305,26.8072357 37.3971788,27.5782928 L50.4170321,40.6862634 C51.6646651,41.9423403 50.7752634,44.0814019 49.0211655,44.0814019 Z" id="path-1"></path>
    </defs>
    <g id="Icons/Cloud2" stroke="none" stroke-width="1" fill="none" fill-rule="evenodd">
        <mask id="mask-2" fill="white">
            <use xlink:href="#path-1"></use>
        </mask>
        <use id="Mask" fill="#000000" fill-rule="nonzero" xlink:href="#path-1"></use>
    </g>
</svg>