<?xml version="1.0" encoding="UTF-8"?>
<svg width="80px" height="80px" viewBox="0 0 80 80" version="1.1" xmlns="http://www.w3.org/2000/svg" xmlns:xlink="http://www.w3.org/1999/xlink">
    <title>Icons/ar1 Copy 2</title>
    <defs>
        <path d="M74.2857143,31.4285714 L48.5714286,31.4285714 L48.5714286,5.71428571 C48.5714286,2.55892857 46.0125,0 42.8571429,0 L37.1428571,0 C33.9875,0 31.4285714,2.55892857 31.4285714,5.71428571 L31.4285714,31.4285714 L5.71428571,31.4285714 C2.55892857,31.4285714 0,33.9875 0,37.1428571 L0,42.8571429 C0,46.0125 2.55892857,48.5714286 5.71428571,48.5714286 L31.4285714,48.5714286 L31.4285714,74.2857143 C31.4285714,77.4410714 33.9875,80 37.1428571,80 L42.8571429,80 C46.0125,80 48.5714286,77.4410714 48.5714286,74.2857143 L48.5714286,48.5714286 L74.2857143,48.5714286 C77.4410714,48.5714286 80,46.0125 80,42.8571429 L80,37.1428571 C80,33.9875 77.4410714,31.4285714 74.2857143,31.4285714 Z" id="path-1"></path>
    </defs>
    <g id="Icons/ar1-Copy-2" stroke="none" stroke-width="1" fill="none" fill-rule="evenodd">
        <mask id="mask-2" fill="white">
            <use xlink:href="#path-1"></use>
        </mask>
        <use id="Mask" fill="#666666" fill-rule="nonzero" xlink:href="#path-1"></use>
    </g>
</svg>
