<svg width="24" height="20" viewBox="0 0 24 20" fill="none" xmlns="http://www.w3.org/2000/svg">
<path fill-rule="evenodd" clip-rule="evenodd" d="M17.1 0.249777L23.1 4.74978C23.289 4.89078 23.4 5.11428 23.4 5.34978C23.4 5.58528 23.289 5.80878 23.1 5.94978L17.1 10.4498C16.8735 10.6208 16.5675 10.6478 16.314 10.5203C16.0605 10.3928 15.9 10.1333 15.9 9.84978V7.59978H13.035C10.461 7.59978 8.148 9.03078 6.9975 11.3333L6.8205 11.6858C6.6915 11.9438 6.429 12.0998 6.15 12.0998C6.093 12.0998 6.0345 12.0938 5.9775 12.0803C5.64 12.0008 5.4 11.6978 5.4 11.3498C5.4 6.80028 9.1005 3.09978 13.65 3.09978H15.9V0.849777C15.9 0.566276 16.0605 0.306777 16.3155 0.179277C16.569 0.0517768 16.875 0.0787768 17.1 0.249777ZM15.9 16.8999V11.8464H18.9V18.3999C18.9 19.2294 18.2295 19.8999 17.4 19.8999H1.5C0.672 19.8999 0 19.2294 0 18.3999V2.4999C0 1.6719 0.672 0.999902 1.5 0.999902H7.8V3.9999H3V16.8999H15.9Z" fill="#4D4D4D"/>
</svg>
