<svg width="20" height="20" viewBox="0 0 20 20" fill="none" xmlns="http://www.w3.org/2000/svg">
<path fill-rule="evenodd" clip-rule="evenodd" d="M3.90834 5.91667L1.67501 3.68333L2.85001 2.5L17.625 17.2833L16.45 18.4583L13.6 15.6083C12.4833 16.05 11.2667 16.2917 10 16.2917C5.83334 16.2917 2.27501 13.7 0.833344 10.0417C1.47501 8.4 2.55001 6.98333 3.90834 5.91667ZM10 5.45833C13.1583 5.45833 15.975 7.23333 17.35 10.0417C16.8583 11.0583 16.1667 11.9333 15.3417 12.6417L16.5167 13.8167C17.675 12.7917 18.5917 11.5083 19.1667 10.0417C17.725 6.38333 14.1667 3.79167 10 3.79167C8.94168 3.79167 7.92501 3.95833 6.96668 4.26667L8.34167 5.64167C8.88334 5.53333 9.43334 5.45833 10 5.45833ZM9.10834 6.40833L10.8333 8.13333C11.3083 8.34167 11.6917 8.725 11.9 9.20001L13.625 10.925C13.6917 10.6417 13.7417 10.3417 13.7417 10.0333C13.75 7.96667 12.0667 6.29167 10 6.29167C9.69168 6.29167 9.40001 6.33333 9.10834 6.40833ZM7.92501 9.93334L10.1 12.1083C10.0667 12.1167 10.0333 12.125 10 12.125C8.85001 12.125 7.91668 11.1917 7.91668 10.0417C7.91668 10.0208 7.91876 10.0042 7.92084 9.98751C7.92293 9.97084 7.92501 9.95418 7.92501 9.93334ZM6.55001 8.55833L5.09168 7.1C4.08334 7.86667 3.23334 8.85001 2.65001 10.0417C4.02501 12.85 6.84168 14.625 10 14.625C10.7917 14.625 11.5583 14.5083 12.2917 14.3083L11.475 13.4917C11.025 13.6833 10.525 13.7917 10 13.7917C7.93334 13.7917 6.25001 12.1083 6.25001 10.0417C6.25001 9.51668 6.35834 9.01668 6.55001 8.55833Z" fill="#808080"/>
</svg>
