<?xml version="1.0" encoding="UTF-8"?>
<svg width="80px" height="80px" viewBox="0 0 80 80" version="1.1" xmlns="http://www.w3.org/2000/svg" xmlns:xlink="http://www.w3.org/1999/xlink">
    <title>Icons/Bug</title>
    <g id="Icons/Bug" stroke="none" stroke-width="1" fill="none" fill-rule="evenodd">
        <path d="M79.9980708,45.1406477 C79.9233833,47.8640865 77.6204134,50.0000251 74.896037,50.0000251 L66.2499389,50.0000251 L66.2499389,52.5000264 C66.2499389,55.9162781 65.487126,59.1537797 64.1249378,62.0539374 L73.5355676,71.4645671 C75.4880685,73.4172244 75.4880685,76.5830072 73.5355676,78.5356644 C71.5827541,80.4883217 68.4169712,80.4881654 66.464314,78.5356644 L57.9118097,69.9831602 C54.0446203,73.119568 49.117274,75.0000377 43.7499276,75.0000377 L43.7499276,36.8750185 C43.7499276,35.8395493 42.9103959,35.0000176 41.8749267,35.0000176 L38.1249248,35.0000176 C37.0894555,35.0000176 36.2499238,35.8395493 36.2499238,36.8750185 L36.2499238,75.0000377 C30.8825774,75.0000377 25.9552312,73.119568 22.0880417,69.9831602 L13.5355374,78.5356644 C11.5827239,80.4883217 8.4169411,80.4881654 6.46428387,78.5356644 C4.51178289,76.5830072 4.51178289,73.4172244 6.46428387,71.4645671 L15.8749136,62.0539374 C14.5127254,59.1537797 13.7499125,55.9162781 13.7499125,52.5000264 L13.7499125,50.0000251 L5.10397068,50.0000251 C2.37959432,50.0000251 0.0766244085,47.8640865 0.00193687098,45.1406477 C-0.075719418,42.3150213 2.19178172,40.0000201 4.99990813,40.0000201 L13.7499125,40.0000201 L13.7499125,30.8211092 L6.46428387,23.5354806 C4.51178289,21.5828233 4.51178289,18.4170405 6.46428387,16.4643833 C8.41709735,14.511726 11.5827239,14.511726 13.5355374,16.4643833 L22.0710105,25.0000126 L57.9286847,25.0000126 L66.4641578,16.4645395 C68.4169712,14.5118823 71.5825978,14.5118823 73.5354113,16.4645395 C75.4879123,18.4171968 75.4879123,21.5829796 73.5354113,23.5356368 L66.2499389,30.8211092 L66.2499389,40.0000201 L74.9999433,40.0000201 C77.8080697,40.0000201 80.0755708,42.3150213 79.9980708,45.1406477 Z M40.156167,0 C30.4911709,0 22.656167,7.83500394 22.656167,17.5 L57.6561846,17.5000088 C57.6561846,7.83500394 49.8211806,0 40.156167,0 Z" id="Shape" fill="#666666" fill-rule="nonzero"></path>
    </g>
</svg>
