<?xml version="1.0" encoding="UTF-8"?>
<svg width="80px" height="80px" viewBox="0 0 80 80" version="1.1" xmlns="http://www.w3.org/2000/svg" xmlns:xlink="http://www.w3.org/1999/xlink">
    <title>Icons/list1</title>
    <defs>
        <path d="M20,20 C20,23.31375 17.31375,26 14,26 C10.68625,26 8,23.31375 8,20 C8,16.68625 10.68625,14 14,14 C17.31375,14 20,16.68625 20,20 Z M14,34 C10.68625,34 8,36.68625 8,40 C8,43.31375 10.68625,46 14,46 C17.31375,46 20,43.31375 20,40 C20,36.68625 17.31375,34 14,34 Z M14,54 C10.68625,54 8,56.68625 8,60 C8,63.31375 10.68625,66 14,66 C17.31375,66 20,63.31375 20,60 C20,56.68625 17.31375,54 14,54 Z M26,24 L70,24 C71.104625,24 72,23.104625 72,22 L72,17 C72,15.895375 71.104625,15 70,15 L26,15 C24.895375,15 24,15.895375 24,17 L24,22 C24,23.104625 24.895375,24 26,24 Z M26,44 L70,44 C71.104625,44 72,43.104625 72,42 L72,37 C72,35.895375 71.104625,35 70,35 L26,35 C24.895375,35 24,35.895375 24,37 L24,42 C24,43.104625 24.895375,44 26,44 Z M26,64 L70,64 C71.104625,64 72,63.104625 72,62 L72,57 C72,55.895375 71.104625,55 70,55 L26,55 C24.895375,55 24,55.895375 24,57 L24,62 C24,63.104625 24.895375,64 26,64 Z" id="path-1"></path>
    </defs>
    <g id="Icons/list1" stroke="none" stroke-width="1" fill="none" fill-rule="evenodd">
        <mask id="mask-2" fill="white">
            <use xlink:href="#path-1"></use>
        </mask>
        <use id="Mask" fill="#666666" fill-rule="nonzero" xlink:href="#path-1"></use>
    </g>
</svg>
