<svg version="1.0" xmlns="http://www.w3.org/2000/svg"
 width="80.000000pt" height="80.000000pt" viewBox="0 0 80.000000 80.000000"
 preserveAspectRatio="xMidYMid meet">
<g transform="translate(0.000000,80.000000) scale(0.100000,-0.100000)"
fill="#CC0000" stroke="none">
<path d="M189 777 c-19 -12 -44 -42 -56 -66 -13 -25 -35 -50 -55 -60 -52 -28
-78 -74 -78 -138 0 -30 7 -67 15 -83 14 -27 14 -33 0 -60 -8 -16 -15 -53 -15
-83 0 -64 26 -110 78 -138 20 -10 42 -35 55 -60 30 -59 77 -89 139 -89 73 0
88 12 88 66 0 55 14 84 40 84 26 0 40 -29 40 -84 0 -54 15 -66 88 -66 62 0
109 30 139 89 13 25 35 50 55 60 52 28 78 74 78 138 0 30 -7 67 -15 83 -14 27
-14 33 0 60 8 16 15 53 15 83 0 64 -26 110 -78 138 -20 10 -42 35 -55 60 -30
60 -76 89 -142 89 -86 0 -86 1 -92 -208 -4 -126 -3 -182 5 -182 6 0 35 28 66
62 l56 63 22 -23 23 -22 -100 -100 c-55 -55 -103 -100 -106 -100 -4 0 -50 41
-103 91 -96 91 -112 119 -78 138 14 8 28 -1 80 -52 l62 -61 0 186 c0 214 2
208 -88 208 -34 0 -59 -7 -83 -23z"/>
</g>
</svg>
