<?xml version="1.0" encoding="UTF-8"?>
<svg width="80px" height="80px" viewBox="0 0 80 80" version="1.1" xmlns="http://www.w3.org/2000/svg">
    <title>Icons/ar2 Copy 19</title>
    <g id="Icons/ar2-Copy-19" stroke="none" stroke-width="1" fill="none" fill-rule="evenodd">
        <path d="M36,2.72616062 L36,12 C36,14.209139 37.790861,16 40,16 C42.209139,16 44,14.209139 44,12 L44,2.72616028 C46.4397234,1.00857573 49.4145789,0 52.625,0 C60.4719314,0 66.9115605,6.02537716 67.5696081,13.7018521 C74.6668999,15.1763503 80,21.465369 80,29 C80,33.2900866 78.2710283,37.1763502 75.4718759,40 C78.2710283,42.8236498 80,46.7099134 80,51 C80,58.534631 74.6668999,64.8236497 67.5696081,66.2981479 C66.9115605,73.9746228 60.4719314,80 52.625,80 C49.4145791,80 46.4397237,78.9914244 44,77.2738394 L44,68 C44,65.790861 42.209139,64 40,64 C37.790861,64 36,65.790861 36,68 L36,77.2738394 C33.5602763,78.9914244 30.5854209,80 27.375,80 C19.5280686,80 13.0884395,73.9746228 12.4303919,66.2981479 C5.33310005,64.8236497 -3.55271368e-15,58.534631 -3.55271368e-15,51 C-3.55271368e-15,46.7099134 1.72897168,42.8236498 4.52812412,40 C1.72897168,37.1763502 -7.10542736e-15,33.2900866 -7.10542736e-15,29 C-7.10542736e-15,21.465369 5.33310005,15.1763503 12.4303919,13.7018521 C13.0884395,6.02537716 19.5280686,0 27.375,0 C30.5854209,0 33.5602763,1.00857562 36,2.72616062 Z M59.8076009,31.9788439 C60.4604613,31.3577828 60.464624,30.3466788 59.8170365,29.7204278 L56.6899672,26.6972295 C56.0423797,26.0711115 54.98809,26.0671193 54.3352296,26.6881804 L34.7213894,45.3474272 L26.4247206,37.3260643 C25.777133,36.6998133 24.7228433,36.695821 24.069983,37.3168821 L20.9175208,40.3158608 C20.2645217,40.937055 20.2603589,41.9481589 20.9079464,42.5742769 L33.5046131,54.7527703 C34.1522006,55.3788883 35.2064903,55.3828805 35.8593507,54.7618194 L59.8076009,31.9788439 Z"
              id="Combined-Shape" fill="#59B368" fill-rule="nonzero">
    </path>
</g>
        </svg>
