<svg width="20" height="24" viewBox="0 0 20 24" fill="none" xmlns="http://www.w3.org/2000/svg">
	<path fill-rule="evenodd" clip-rule="evenodd" d="M10.0203 17.2298L10.0203 18.8194L10.0203 18.9352C9.99768 18.9341 9.97493 18.9336 9.95204 18.9336C6.06553 18.9336 2.91488 15.7829 2.91488 11.8964C2.91488 10.1751 3.53104 8.60149 4.55639 7.37849C5.05578 6.78283 4.97774 5.89512 4.38208 5.39573C3.78642 4.89634 2.89871 4.97438 2.39932 5.57003C0.96492 7.28094 0.100015 9.4895 0.100015 11.8964C0.100016 17.3375 4.51092 21.7484 9.95205 21.7484C9.97493 21.7484 9.99768 21.7479 10.0203 21.7468L10.0203 23.17C10.0203 23.908 10.9299 24.2775 11.4619 23.7557L14.4899 20.7856C14.8197 20.4622 14.8197 19.9377 14.4899 19.6143L11.4619 16.6442C10.9299 16.1223 10.0203 16.4919 10.0203 17.2298ZM9.88367 5.18057L9.88367 6.77017C9.88367 7.50812 8.97405 7.87768 8.44208 7.35585L5.41403 4.38575C5.08424 4.06226 5.08424 3.53785 5.41403 3.21437L8.44208 0.244266C8.97409 -0.277526 9.88367 0.0920325 9.88367 0.829976L9.88367 2.25355C9.90629 2.25247 9.92904 2.25193 9.95193 2.25193C15.3931 2.25193 19.804 6.66283 19.804 12.104C19.804 14.5108 18.9391 16.7194 17.5047 18.4303C17.0053 19.026 16.1175 19.104 15.5219 18.6046C14.9262 18.1052 14.8482 17.2175 15.3476 16.6219C16.3729 15.3988 16.9891 13.8252 16.9891 12.104C16.9891 8.21744 13.8384 5.06679 9.95193 5.06679C9.92904 5.06679 9.90629 5.06625 9.88367 5.06517L9.88367 5.18057Z" fill="white"/>
</svg>
