<?xml version="1.0" encoding="UTF-8"?>
<svg width="80px" height="80px" viewBox="0 0 80 80" version="1.1" xmlns="http://www.w3.org/2000/svg" xmlns:xlink="http://www.w3.org/1999/xlink">
    <title>Icons/filter Copy</title>
    <g id="Icons/filter-Copy" stroke="none" stroke-width="1" fill="none" fill-rule="evenodd">
        <path d="M78.4007614,57.1522048 L50.3733934,8.96969525 C45.7954801,1.01010158 34.2189586,1.01010158 29.6575126,8.96969525 L1.61367728,57.1522048 C-2.96423594,65.1117984 2.73345462,75 11.9716176,75 L67.9440172,75 C77.1821802,75 82.9786746,65.0137336 78.4007614,57.1522048 Z M39.9989857,64.3109358 C37.5618233,64.3109358 35.5363437,62.3006072 35.5363437,59.8816753 C35.5363437,57.4627433 37.5618233,55.4524147 39.9989857,55.4524147 C42.4361481,55.4524147 44.4616277,57.4627433 44.3628238,59.9960842 C44.478095,62.3006072 42.3373442,64.3109358 39.9989857,64.3109358 Z M44.0664122,35.6760116 C43.8688044,39.1082799 43.6547293,42.5242041 43.4571216,45.9564724 C43.3583177,47.0678736 43.3583177,48.0812099 43.3583177,49.176267 C43.2595138,50.9904659 41.8268575,52.3960615 39.9989857,52.3960615 C38.1711139,52.3960615 36.7549249,51.0885307 36.6396537,49.2743318 C36.343242,43.9297997 36.0303631,38.6833324 35.7339514,33.3388003 C35.6351475,31.9332047 35.5363437,30.511265 35.4210725,29.1056694 C35.4210725,26.7848022 36.7384576,24.8725384 38.8792084,24.2678055 C41.0199591,23.7611373 43.1442426,24.7744736 44.0664122,26.7848022 C44.3792912,27.4876 44.478095,28.1903978 44.478095,29.0076046 C44.3792912,31.246751 44.1652161,33.4695534 44.0664122,35.6760116 Z" id="Shape" fill="#999999" fill-rule="nonzero"></path>
    </g>
</svg>
