<svg width="20" height="20" viewBox="0 0 20 20" fill="none" xmlns="http://www.w3.org/2000/svg">
<path fill-rule="evenodd" clip-rule="evenodd" d="M5.85786 0H14.1421L20 5.85786V14.1421L14.1421 20H5.85786L0 14.1421V5.85786L5.85786 0ZM9.99969 15.0778C9.3904 15.0778 8.88403 14.5752 8.88403 13.9705C8.88403 13.3657 9.3904 12.8632 9.99969 12.8632C10.609 12.8632 11.1154 13.3657 11.0907 13.9991C11.1195 14.5752 10.5843 15.0778 9.99969 15.0778ZM10.9404 9.20394C10.9661 8.77597 10.9919 8.34801 11.0166 7.91902C11.0288 7.64596 11.0481 7.37191 11.0674 7.09685C11.0872 6.81625 11.107 6.5346 11.1195 6.25192C11.1195 6.04762 11.0948 5.87192 11.0166 5.69622C10.786 5.19363 10.2549 4.9403 9.71976 5.06697C9.18457 5.21815 8.85522 5.69622 8.85522 6.27643C8.88229 6.6064 8.90571 6.93997 8.92892 7.27038L8.93344 7.33472C8.9705 8.00279 9.00858 8.66473 9.04666 9.32667C9.08474 9.9886 9.12282 10.6505 9.15987 11.3186C9.18869 11.7721 9.54274 12.099 9.9997 12.099C10.4567 12.099 10.8148 11.7476 10.8395 11.2941C10.8395 11.0203 10.8395 10.767 10.8642 10.4891C10.8889 10.0601 10.9147 9.63199 10.9404 9.20394Z" fill="#E23636"/>
</svg>
