<svg width="20" height="20" viewBox="0 0 20 20" fill="none" xmlns="http://www.w3.org/2000/svg">
<path fill-rule="evenodd" clip-rule="evenodd" d="M19.6002 14.6641L12.5933 2.28388C11.4489 0.238707 8.55474 0.238707 7.41438 2.28388L0.403419 14.6641C-0.741059 16.7093 0.683364 19.25 2.9929 19.25H16.986C19.2955 19.25 20.7447 16.6841 19.6002 14.6641ZM9.99969 16.5033C9.3904 16.5033 8.88403 15.9868 8.88403 15.3653C8.88403 14.7437 9.3904 14.2272 9.99969 14.2272C10.609 14.2272 11.1154 14.7437 11.0907 15.3947C11.1195 15.9868 10.5843 16.5033 9.99969 16.5033ZM10.9404 10.4663C10.9661 10.0265 10.9919 9.58665 11.0166 9.14575C11.0288 8.86511 11.0481 8.58344 11.0674 8.30074C11.0872 8.01234 11.107 7.72288 11.1195 7.43234C11.1195 7.22236 11.0948 7.04178 11.0166 6.8612C10.786 6.34466 10.2549 6.08429 9.71976 6.21447C9.18457 6.36986 8.85522 6.8612 8.85522 7.45754C8.88227 7.79653 8.9057 8.13923 8.9289 8.47868L8.93344 8.54521C8.9705 9.23184 9.00858 9.91216 9.04666 10.5925C9.08474 11.2728 9.12282 11.9531 9.15987 12.6398C9.18869 13.1059 9.54274 13.4419 9.9997 13.4419C10.4567 13.4419 10.8148 13.0807 10.8395 12.6146C10.8395 12.3332 10.8395 12.0728 10.8642 11.7873C10.8889 11.3463 10.9147 10.9063 10.9404 10.4663Z" fill="#FF9966"/>
</svg>
