<?xml version="1.0" standalone="no"?>
<!DOCTYPE svg PUBLIC "-//W3C//DTD SVG 20010904//EN"
 "http://www.w3.org/TR/2001/REC-SVG-20010904/DTD/svg10.dtd">
<svg version="1.0" xmlns="http://www.w3.org/2000/svg"
 width="80.000000pt" height="80.000000pt" viewBox="0 0 80.000000 80.000000"
 preserveAspectRatio="xMidYMid meet">
<g transform="translate(0.000000,80.000000) scale(0.100000,-0.100000)"
fill="#666666" stroke="none">
<path d="M200 783 c-67 -24 -162 -123 -185 -192 -24 -73 -17 -199 14 -259 33
-65 87 -118 149 -149 49 -24 69 -28 143 -28 69 0 95 5 136 24 l51 24 97 -102
c79 -82 103 -101 126 -101 27 0 49 22 49 51 0 6 -45 58 -100 114 l-100 101 32
60 c30 54 33 66 33 149 0 78 -4 97 -28 147 -31 62 -84 115 -149 149 -57 30
-201 36 -268 12z m215 -97 c101 -47 159 -157 135 -256 -22 -92 -87 -156 -182
-180 -38 -10 -56 -9 -102 4 -157 46 -225 228 -133 354 71 95 180 126 282 78z"/>
</g>
</svg>
