<?xml version="1.0" encoding="UTF-8"?>
<svg width="80px" height="80px" viewBox="0 0 80 80" version="1.1" xmlns="http://www.w3.org/2000/svg" xmlns:xlink="http://www.w3.org/1999/xlink">
    <title>Icons/arrr1 Copy</title>
    <defs>
        <path d="M65.94375,41.9937888 L48.94375,58.8881988 C47.76875,60.0559006 45.86875,60.0559006 44.70625,58.8881988 L41.88125,56.0807453 C40.70625,54.9130435 40.70625,53.0248447 41.88125,51.8695652 L53.93125,39.8944099 L41.88125,27.9192547 C40.70625,26.7515528 40.70625,24.863354 41.88125,23.7080745 L44.69375,20.8757764 C45.86875,19.7080745 47.76875,19.7080745 48.93125,20.8757764 L65.93125,37.7701863 C67.11875,38.9378882 67.11875,40.826087 65.94375,41.9937888 Z M39.94375,41.9937888 L22.94375,58.8881988 C21.76875,60.0559006 19.86875,60.0559006 18.70625,58.8881988 L15.88125,56.0807453 C14.70625,54.9130435 14.70625,53.0248447 15.88125,51.8695652 L27.93125,39.8944099 L15.88125,27.9192547 C14.70625,26.7515528 14.70625,24.863354 15.88125,23.7080745 L18.69375,20.8757764 C19.86875,19.7080745 21.76875,19.7080745 22.93125,20.8757764 L39.93125,37.7701863 C41.11875,38.9378882 41.11875,40.826087 39.94375,41.9937888 Z" id="path-1"></path>
    </defs>
    <g id="Icons/arrr1-Copy" stroke="none" stroke-width="1" fill="none" fill-rule="evenodd">
        <mask id="mask-2" fill="white">
            <use xlink:href="#path-1"></use>
        </mask>
        <use id="Combined-Shape" fill="#666666" fill-rule="nonzero" xlink:href="#path-1"></use>
    </g>
</svg>
