<?xml version="1.0" encoding="UTF-8"?>
<svg width="210px" height="68px" viewBox="0 0 210 68" version="1.1" xmlns="http://www.w3.org/2000/svg" xmlns:xlink="http://www.w3.org/1999/xlink">
    <title>Combined Shape</title>
    <g id="Page-1" stroke="none" stroke-width="1" fill="none" fill-rule="evenodd">
        <g id="Report-Summary" transform="translate(-25.000000, -29.000000)" fill="#4D6680">
            <g id="Group">
                <path d="M84.5854778,72.3462192 C84.3200837,72.3462192 84.0960927,72.6013337 84.0960927,72.9036057 C84.0960927,73.2066507 84.3200837,73.4621517 84.5854778,73.4621517 C84.8508719,73.4621517 85.0748628,73.2066507 85.0748628,72.9036057 C85.0748628,72.6013337 84.8508719,72.3462192 84.5854778,72.3462192 M26.5589847,91.5184582 C26.337892,91.5184582 26.1155572,91.4740064 25.9072994,91.3843298 C25.3777533,91.1554999 25.029967,90.6684632 25.0080233,90.1242189 C24.8842279,87.0987933 26.1673111,82.9010006 32.9628075,80.0452647 C32.9628075,79.9424458 32.9744004,79.8384673 32.9988283,79.7341023 L35.7546209,67.9068409 C28.9218616,62.486818 27.050854,56.0246911 30.3440593,49.2185463 C30.5312015,48.8320092 30.8897526,48.5413333 31.3257276,48.423053 C31.3460151,48.4176415 31.3663027,48.4126165 31.3870042,48.4075915 L31.1265785,48.2089115 C30.6922597,47.8768761 30.4835879,47.3519588 30.5804712,46.8359318 C31.871835,39.9806967 34.7928261,35.0596932 39.2639506,32.2097553 C46.9380216,27.3173555 57.5223189,29.3053157 66.0269368,30.90326 C71.0143584,31.8402259 76.1719468,32.8092743 77.6752946,31.4942752 C78.0661402,31.1518033 78.5977565,31.0354557 79.0834152,31.1390476 C79.344669,30.9299311 79.6812765,30.7996681 80.0518346,30.7900046 C80.9039111,30.7718374 81.6230835,31.3988005 81.6466833,32.1989323 C81.9116634,41.156929 81.1121688,51.2451602 79.5069693,59.2402931 C79.8311559,60.438558 82.620485,66.635907 90.0842281,70.9106205 C96.2392181,74.4350656 105.407942,76.7817321 113.496873,78.8520247 C116.815748,79.7012467 119.950793,80.5036977 122.60018,81.3204505 C123.414579,81.5709265 123.856765,82.3907717 123.588059,83.1507036 C123.319352,83.9114085 122.441606,84.3246167 121.626792,84.072981 C119.433668,83.3973142 116.860877,82.7220339 114.118748,82.0177634 C110.697607,81.2288412 99.9982087,79.0905181 93.2238278,78.0395238 C93.0010789,78.6313121 92.3953511,79.0232606 91.7200659,79.0077992 C89.6254814,78.958709 87.3387862,79.2443599 85.1270308,79.5207339 C79.8750432,80.1766873 74.4425379,80.8550599 71.9616621,76.7044247 C71.801846,76.4377141 71.7422255,76.1435594 71.7716217,75.8606143 C71.6532087,75.9406275 71.5211327,76.0059522 71.3762218,76.0534963 L58.9660462,80.1306894 C58.2977996,80.3494694 57.5546133,80.1190933 57.1604555,79.5694375 C56.7662977,79.0197818 56.8209498,78.2903864 57.2933596,77.797165 L62.0882566,72.7911234 C54.1338864,70.3369995 48.2620938,70.1348406 44.6289688,72.1916044 C42.1261493,73.6082627 40.6186612,76.1052923 40.0203859,79.8257116 C39.8932782,80.6173396 39.0999942,81.1619703 38.2545422,81.0436899 C37.406606,80.9246365 36.8224078,80.1867372 36.9495154,79.3951093 C37.6831789,74.8347449 39.7251815,71.5770104 43.0188009,69.7127421 C47.6613343,67.085063 54.4849849,67.2756258 63.8814263,70.2964131 C64.1389538,70.3795185 64.3583904,70.519445 64.5289714,70.6960924 C64.9839918,70.6168523 65.4742049,70.7293346 65.8472472,71.04127 C66.4865116,71.5746912 66.5411637,72.4911706 65.9698004,73.0879838 L63.6375619,75.5227809 L70.3456977,73.319133 C71.1534729,73.0516494 72.0407421,73.449396 72.3255956,74.205076 C72.4030195,74.4103272 72.4278614,74.6209899 72.4067458,74.8239219 C72.4556015,74.7910662 72.5069414,74.7605298 72.5607654,74.7326991 C73.3093341,74.3422967 74.2558098,74.5927727 74.6731534,75.2920183 C76.0274499,77.5571255 79.370753,77.3155398 84.7150696,76.6472172 C85.4557717,76.5548349 86.2043404,76.4612929 86.9558072,76.378574 C86.9148181,76.2371014 86.8966008,76.0878981 86.9040533,75.9336698 C86.9433863,75.1343111 87.6604886,74.512373 88.5266422,74.5525728 C89.1994431,74.5815631 90.1314277,74.6774243 91.2480702,74.8239219 C90.2734404,74.3658754 89.3410418,73.8857964 88.4608112,73.381752 C88.0202818,73.1293433 87.5934155,72.87075 87.1802122,72.6071317 C87.1942893,72.7041525 87.2013278,72.8034926 87.2013278,72.9036057 C87.2013278,74.1946395 86.027963,75.2452473 84.5854778,75.2452473 C83.1429926,75.2452473 81.9696278,74.1946395 81.9696278,72.9036057 C81.9696278,71.6806023 83.0237516,70.6736733 84.3614868,70.5716275 C78.3725234,65.6958488 76.1851958,60.031921 76.412499,58.9159885 C77.8827243,51.6950893 78.6739382,42.6729274 78.5849215,34.3820937 C75.7094738,35.6793121 71.0764631,34.8092172 65.4141704,33.7454671 C57.4817438,32.2553667 47.6087524,30.4003753 41.0148892,34.6035794 C37.3821781,36.9193231 35.0188872,40.8190956 33.8053613,46.5093079 L40.0460558,51.2780158 C40.709334,51.7851525 40.8074595,52.6981531 40.2642503,53.317772 C39.8228929,53.8214298 39.0937837,53.9752716 38.4810173,53.7441224 C38.4553474,53.7912799 38.4267792,53.8372778 38.3948988,53.8821161 C37.9245592,54.5512118 36.9615223,54.7375227 36.244834,54.2984166 L32.5082011,52.0077978 C30.7572626,57.0254356 32.493296,61.5220214 37.7800623,65.7093776 C38.2214197,66.0584206 38.4015233,66.5887494 38.3013277,67.08429 C38.7137029,67.4201907 38.9223747,67.950133 38.7977513,68.4847138 L36.03285,80.3502424 C35.9314123,80.7862563 35.6295834,81.13298 35.2374958,81.3254755 C35.2391519,81.8828619 34.8955059,82.4151235 34.315448,82.6559361 C31.9451185,83.6408326 30.24759,84.8476013 29.2323851,86.2646462 L31.3865902,84.6844827 C31.819667,84.3667492 32.3993109,84.2875091 32.9122957,84.4742065 C33.4244525,84.661677 33.7925264,85.0884139 33.8790589,85.5955506 C33.9092832,85.7706519 33.946546,85.9894318 34.5174953,85.9952299 C35.3749542,86.0041203 36.0622462,86.6600737 36.0527235,87.4609785 C36.0436148,88.2611102 35.3476281,88.9155175 34.4831306,88.894258 C33.4451541,88.8830484 32.5496043,88.5579707 31.8970909,87.9963323 L27.5182954,91.2084554 C27.2396523,91.4129336 26.9009746,91.5184582 26.5589847,91.5184582 M56.2798108,97.0246788 C55.8980739,97.0246788 55.5184072,96.8936428 55.2223748,96.6369821 C50.972757,92.9486454 44.1242646,89.3298853 36.9027298,86.9569341 C36.0937126,86.6909966 35.6689164,85.8634208 35.95377,85.1085138 C36.2382095,84.3528339 37.1246506,83.9550872 37.9336679,84.2225709 C42.5169949,85.7285193 46.9723862,87.7245968 50.7852008,89.9367485 C47.6973551,86.5943624 43.9781115,84.5696812 40.7577757,83.102773 C39.9872634,82.7517973 39.6672171,81.8840216 40.0431576,81.1642895 C40.4195121,80.444944 41.3490125,80.1465374 42.1195248,80.4975131 C47.4634274,82.931537 54.0655712,86.7822194 57.7144294,95.0212572 C57.9930725,95.6509261 57.7645272,96.3768427 57.1650098,96.765699 C56.8971316,96.9392541 56.5878502,97.0246788 56.2798108,97.0246788 Z M121.731793,65.829436 C121.731793,68.1011144 120.863172,69.8907811 119.12634,71.1988225 C117.389508,72.5060909 114.972564,73.1604982 111.876741,73.1604982 C109.024459,73.1604982 106.501556,72.6556808 104.307209,71.6460459 L104.307209,66.6902541 C106.110984,67.4474802 107.637951,67.9805148 108.887287,68.290131 C110.136623,68.6001338 111.279178,68.7547486 112.315774,68.7547486 C113.55895,68.7547486 114.512585,68.5313302 115.177091,68.0837202 C115.841186,67.6364968 116.173438,66.9712665 116.173438,66.0876428 C116.173438,65.594808 116.027231,65.1557019 115.734405,64.7710975 C115.4424,64.3872662 115.012402,64.0169637 114.445642,63.6613495 C113.878882,63.3057354 112.723595,62.7379125 110.981013,61.9574941 C109.347266,61.2350563 108.122161,60.5408357 107.305698,59.8756054 C106.488824,59.2099886 105.83664,58.4357548 105.349555,57.552131 C104.861648,56.6688938 104.618106,55.6364533 104.618106,54.4548095 C104.618106,52.229129 105.419373,50.4796622 107.022318,49.206409 C108.624852,47.9327694 110.840555,47.2961428 113.668606,47.2961428 C115.057989,47.2961428 116.383715,47.4511442 117.645372,47.7607604 C118.907029,48.0703766 120.226183,48.5067769 121.603656,49.0684153 L119.775239,53.2159581 C118.349304,52.6651428 117.170197,52.2809249 116.237507,52.062918 C115.305228,51.8449111 114.387734,51.7359077 113.485846,51.7359077 C112.413109,51.7359077 111.590075,51.9709222 111.017565,52.4413378 C110.444234,52.91214 110.157979,53.5255743 110.157979,54.2828005 C110.157979,54.7532161 110.273795,55.1633319 110.505428,55.513148 C110.73706,55.8633506 111.105454,56.2015705 111.611431,56.5285809 C112.117408,56.8552047 113.314997,57.4435141 115.204197,58.2923496 C117.702869,59.4167859 119.41588,60.543928 120.34241,61.6737759 C121.268528,62.8036238 121.731793,64.1889727 121.731793,65.829436 Z M137.474414,63.9022394 L135.316619,63.971043 C133.695604,64.017041 132.488569,64.2922554 131.696748,64.7970728 C130.904105,65.3022767 130.508195,66.0707124 130.508195,67.103153 C130.508195,68.5828169 131.409672,69.3230354 133.214268,69.3230354 C134.505906,69.3230354 135.538806,68.9732194 136.313378,68.2732007 C137.087128,67.5735686 137.474414,66.6443335 137.474414,65.4854953 L137.474414,63.9022394 Z M139.119661,72.816171 L138.041174,70.2004746 L137.894556,70.2004746 C136.955706,71.3133148 135.99016,72.0848428 134.996687,72.5150586 C134.003215,72.9452744 132.708291,73.1605755 131.111507,73.1605755 C129.148792,73.1605755 127.603755,72.6325659 126.476396,71.5773196 C125.349036,70.5216869 124.785151,69.0192173 124.785151,67.0687512 C124.785151,65.0266758 125.544117,63.5211139 127.061637,62.5512924 C128.579157,61.5822439 130.867553,61.0457305 133.927236,60.9425251 L137.474414,60.8393197 L137.474414,59.9958958 C137.474414,58.0458162 136.413587,57.0705832 134.292755,57.0705832 C132.659008,57.0705832 130.739827,57.5352007 128.533159,58.4644359 L126.686672,54.9195043 C129.039136,53.7606662 131.647465,53.1812471 134.512067,53.1812471 C137.255103,53.1812471 139.357454,53.7436585 140.819941,54.8677084 C142.282839,55.9921447 143.014288,57.7014117 143.014288,59.9958958 L143.014288,72.816171 L139.119661,72.816171 Z M148.75532,72.8161323 L154.331746,72.8161323 L154.331746,53.5770224 L148.75532,53.5770224 L148.75532,72.8161323 Z M148.517527,48.6038364 C148.517527,46.8945694 149.529481,46.039936 151.552568,46.039936 C153.576066,46.039936 154.58802,46.8945694 154.58802,48.6038364 C154.58802,49.4186565 154.33462,50.0521908 153.829054,50.5055988 C153.323077,50.9586203 152.564112,51.185131 151.552568,51.185131 C149.529481,51.185131 148.517527,50.3246994 148.517527,48.6038364 Z M160.182516,72.8161323 L160.182516,46.039936 L165.758941,46.039936 L165.758941,72.8161323 L160.182516,72.8161323 Z M186.10891,72.8161323 L191.685746,72.8161323 L191.685746,53.5770224 L186.10891,53.5770224 L186.10891,72.8161323 Z M185.871528,48.6038364 C185.871528,46.8945694 186.883072,46.039936 188.906569,46.039936 C190.929656,46.039936 191.94161,46.8945694 191.94161,48.6038364 C191.94161,49.4186565 191.688621,50.0521908 191.183055,50.5055988 C190.676667,50.9586203 189.918523,51.185131 188.906569,51.185131 C186.883072,51.185131 185.871528,50.3246994 185.871528,48.6038364 L185.871528,48.6038364 Z M182.909181,57.5177679 L178.082275,57.5177679 L178.082275,72.8161323 L172.505849,72.8161323 L172.505849,57.5177679 L169.434256,57.5177679 L169.434256,54.9882693 L172.505849,53.5770224 L172.505849,52.1661621 C172.505849,49.9748834 173.07877,48.3746199 174.22461,47.3649851 C175.370451,46.3557367 177.204618,45.8505328 179.727932,45.8505328 C181.653684,45.8505328 183.366285,46.1203357 184.865735,46.6595549 L183.439389,50.5141026 C182.31819,50.1812942 181.282004,50.0150833 180.331244,50.0150833 C179.539012,50.0150833 178.966092,50.2361825 178.612483,50.6776078 C178.258874,51.1194197 178.082275,51.6841503 178.082275,52.3725729 L178.082275,53.5770224 L182.909181,53.5770224 L182.909181,57.5177679 Z M211.779852,67.103037 C211.779852,69.0759223 211.051278,70.5791649 209.594951,71.6116055 C208.138214,72.644046 205.959063,73.1604595 203.05832,73.1604595 C201.571191,73.1604595 200.303373,73.065758 199.255278,72.8767413 C198.206772,72.6869516 197.22562,72.409418 196.311411,72.0418212 L196.311411,67.7052618 C197.347186,68.1640813 198.514794,68.5482991 199.812592,68.8583019 C201.110801,69.1679181 202.253767,69.3229194 203.241079,69.3229194 C205.264577,69.3229194 206.276531,68.7721041 206.276531,67.67086 C206.276531,67.2576518 206.141822,66.9221377 205.874049,66.6639309 C205.605865,66.4061107 205.1426,66.1135021 204.484255,65.7864917 C203.82632,65.4594814 202.948664,65.0783558 201.851285,64.6419555 C200.279142,64.0227231 199.124266,63.449102 198.386657,62.9214789 C197.649047,62.3938558 197.112679,61.7885388 196.777962,61.1059143 C196.442423,60.4232898 196.27486,59.5829582 196.27486,58.5849195 C196.27486,56.8756525 196.978792,55.5533092 198.386657,54.618276 C199.794521,53.6832428 201.790502,53.2159195 204.37501,53.2159195 C206.836719,53.2159195 209.231896,53.7207369 211.560541,54.7299852 L209.877921,58.5161159 C208.854467,58.1029077 207.897136,57.7646878 207.007569,57.500683 C206.117591,57.2370647 205.209543,57.104869 204.283425,57.104869 C202.637767,57.104869 201.814733,57.5238752 201.814733,58.3611145 C201.814733,58.8315301 202.080042,59.2385537 202.610251,59.5829582 C203.140459,59.9269762 204.301495,60.4375917 206.09336,61.1144181 C207.690145,61.7228275 208.860628,62.2906504 209.603987,62.8182735 C210.347346,63.3458966 210.896035,63.9539195 211.249644,64.6419555 C211.602842,65.3307645 211.779852,66.1509962 211.779852,67.103037 Z M235.000173,72.816171 L229.423337,72.816171 L229.423337,61.5791516 C229.423337,58.8030423 228.326369,57.4146012 226.132433,57.4146012 C224.571789,57.4146012 223.44443,57.9136205 222.749944,58.9116593 C222.055047,59.909698 221.707598,61.5273557 221.707598,63.7646322 L221.707598,72.816171 L216.131173,72.816171 L216.131173,46.0399746 L221.707598,46.0399746 L221.707598,51.4947858 C221.707598,51.9195901 221.664886,52.9176288 221.579461,54.4892886 L221.451735,56.0381426 L221.744561,56.0381426 C222.987736,54.1568667 224.962361,53.2156489 227.668024,53.2156489 C230.069361,53.2156489 231.892029,53.8240583 233.135204,55.0397174 C234.37838,56.2561495 235.000173,57.9998183 235.000173,60.2711102 L235.000173,72.816171 Z M135.361856,80.3889752 L135.361856,82.8839315 L137.888894,82.8839315 L137.888894,84.0863956 L135.361856,84.0863956 L135.361856,88.7708033 C135.361856,89.8478186 135.702779,90.4580903 136.685562,90.4580903 C137.14686,90.4580903 137.487783,90.4042211 137.708332,90.3503519 L137.788719,91.5347367 C137.447796,91.6605545 136.906111,91.7502135 136.224264,91.7502135 C135.402255,91.7502135 134.740196,91.5170262 134.319298,91.0860725 C133.818013,90.619698 133.637451,89.8478186 133.637451,88.8246725 L133.637451,84.0863956 L132.133595,84.0863956 L132.133595,82.8839315 L133.637451,82.8839315 L133.637451,80.8018495 L135.361856,80.3889752 Z M145.909829,86.3836224 C145.930029,85.3785557 145.448531,83.8170864 143.463178,83.8170864 C141.678173,83.8170864 140.896564,85.2888966 140.75599,86.3836224 L145.909829,86.3836224 Z M140.73579,87.5141379 C140.77619,89.650458 142.300245,90.5297069 144.064637,90.5297069 C145.328156,90.5297069 146.089978,90.3323094 146.752037,90.0810428 L147.052561,91.2119273 C146.431314,91.4631939 145.368556,91.7502504 143.823889,91.7502504 C140.835965,91.7502504 139.051373,89.9913837 139.051373,87.3709786 C139.051373,84.7502045 140.77619,82.6862019 143.60334,82.6862019 C146.772237,82.6862019 147.614446,85.1811582 147.614446,86.7784173 C147.614446,87.1016325 147.574046,87.3528992 147.553846,87.5141379 L140.73579,87.5141379 Z M149.558781,89.9554463 C150.080266,90.2605822 151.00245,90.5834285 151.885058,90.5834285 C153.168365,90.5834285 153.769824,90.0093155 153.769824,89.2913053 C153.769824,88.5375053 153.268539,88.124631 151.965033,87.6940463 C150.220016,87.1372748 149.398007,86.2757363 149.398007,85.2348798 C149.398007,83.8350183 150.661526,82.6864233 152.747054,82.6864233 C153.729837,82.6864233 154.591833,82.937321 155.133106,83.2247465 L154.69242,84.3733414 C154.311097,84.1578646 153.609463,83.8708081 152.707067,83.8708081 C151.664097,83.8708081 151.082424,84.4095002 151.082424,85.0555618 C151.082424,85.773572 151.664097,86.0964183 152.927616,86.527372 C154.612033,87.1018539 155.474442,87.8556539 155.474442,89.1477771 C155.474442,90.6730875 154.151147,91.7501028 151.844658,91.7501028 C150.781901,91.7501028 149.799118,91.5169155 149.117683,91.1579105 L149.558781,89.9554463 Z M159.865222,80.3889752 L159.865222,82.8839315 L162.39226,82.8839315 L162.39226,84.0863956 L159.865222,84.0863956 L159.865222,88.7708033 C159.865222,89.8478186 160.206145,90.4580903 161.188928,90.4580903 C161.650226,90.4580903 161.99115,90.4042211 162.211699,90.3503519 L162.292086,91.5347367 C161.951162,91.6605545 161.409477,91.7502135 160.72763,91.7502135 C159.905622,91.7502135 159.243562,91.5170262 158.822664,91.0860725 C158.321379,90.619698 158.140817,89.8478186 158.140817,88.8246725 L158.140817,84.0863956 L156.636962,84.0863956 L156.636962,82.8839315 L158.140817,82.8839315 L158.140817,80.8018495 L159.865222,80.3889752 Z M164.376542,91.5708586 L166.141346,91.5708586 L166.141346,82.8838946 L164.376542,82.8838946 L164.376542,91.5708586 Z M166.342107,80.4428075 C166.361895,80.9814996 165.920797,81.4120844 165.21875,81.4120844 C164.597091,81.4120844 164.155993,80.9814996 164.155993,80.4428075 C164.155993,79.886405 164.61729,79.4558202 165.25915,79.4558202 C165.920797,79.4558202 166.342107,79.886405 166.342107,80.4428075 Z M169.068588,85.2349167 C169.068588,84.3375885 169.048388,83.6014989 168.988613,82.8838577 L170.552656,82.8838577 L170.653243,84.3198781 L170.692818,84.3198781 C171.174316,83.4937605 172.29726,82.6864602 173.901703,82.6864602 C175.245197,82.6864602 177.330725,83.4041014 177.330725,86.3835117 L177.330725,91.5708217 L175.566333,91.5708217 L175.566333,86.5631987 C175.566333,85.1633371 174.98466,83.9966628 173.320031,83.9966628 C172.156686,83.9966628 171.254703,84.7323834 170.953767,85.6116323 C170.87338,85.8093987 170.833392,86.0783758 170.833392,86.3480908 L170.833392,91.5708217 L169.068588,91.5708217 L169.068588,85.2349167 Z M186.734976,86.3118951 C186.734976,86.042918 186.714776,85.8093618 186.634801,85.5938849 C186.314078,84.6784773 185.451669,83.9246773 184.16795,83.9246773 C182.483533,83.9246773 181.280613,85.19909 181.280613,87.2095923 C181.280613,88.9145898 182.243196,90.3321618 184.148163,90.3321618 C185.23112,90.3321618 186.213491,89.7218901 186.594402,88.7171924 C186.694988,88.4478463 186.734976,88.1427104 186.734976,87.8733644 L186.734976,86.3118951 Z M188.559967,82.8838208 C188.519568,83.511803 188.47958,84.2121027 188.47958,85.2710386 L188.47958,90.3144514 C188.47958,92.3065054 188.038482,93.5274179 187.096099,94.2812179 C186.153716,95.0704387 184.78961,95.3220744 183.56649,95.3220744 C182.403558,95.3220744 181.120252,95.0704387 180.337818,94.6040642 L180.779328,93.4016001 C181.420775,93.7602362 182.423758,94.0834515 183.626678,94.0834515 C185.431469,94.0834515 186.755176,93.2399924 186.755176,91.050172 L186.755176,90.0812641 L186.714776,90.0812641 C186.173503,90.8885644 185.130533,91.534626 183.626678,91.534626 C181.220426,91.534626 179.495609,89.7038107 179.495609,87.2992514 C179.495609,84.355262 181.641737,82.6864233 183.867426,82.6864233 C185.551844,82.6864233 186.474439,83.4760132 186.89575,84.1940233 L186.935325,84.1940233 L187.016124,82.8838208 L188.559967,82.8838208 Z M197.782956,80.3889752 L197.782956,82.8839315 L200.309994,82.8839315 L200.309994,84.0863956 L197.782956,84.0863956 L197.782956,88.7708033 C197.782956,89.8478186 198.123879,90.4580903 199.106662,90.4580903 C199.56796,90.4580903 199.908884,90.4042211 200.12902,90.3503519 L200.20982,91.5347367 C199.868896,91.6605545 199.327211,91.7502135 198.645364,91.7502135 C197.823356,91.7502135 197.161296,91.5170262 196.740398,91.0860725 C196.239113,90.619698 196.058551,89.8478186 196.058551,88.8246725 L196.058551,84.0863956 L194.554696,84.0863956 L194.554696,82.8839315 L196.058551,82.8839315 L196.058551,80.8018495 L197.782956,80.3889752 Z M203.25723,87.2451239 C203.25723,89.1475188 204.480761,90.5835392 206.205166,90.5835392 C207.889583,90.5835392 209.153103,89.1655982 209.153103,87.2093341 C209.153103,85.7375239 208.331094,83.8705498 206.245154,83.8705498 C204.159626,83.8705498 203.25723,85.5936267 203.25723,87.2451239 M210.957894,87.1554649 C210.957894,90.3684313 208.470844,91.7682929 206.124779,91.7682929 C203.497979,91.7682929 201.472638,90.045216 201.472638,87.2989931 C201.472638,84.3915315 203.598153,82.686534 206.285553,82.686534 C209.072716,82.686534 210.957894,84.4992699 210.957894,87.1554649 M214.265758,87.2451239 C214.265758,89.1475188 215.48929,90.5835392 217.213695,90.5835392 C218.898112,90.5835392 220.161631,89.1655982 220.161631,87.2093341 C220.161631,85.7375239 219.339622,83.8705498 217.253682,83.8705498 C215.168154,83.8705498 214.265758,85.5936267 214.265758,87.2451239 M221.966423,87.1554649 C221.966423,90.3684313 219.479372,91.7682929 217.133308,91.7682929 C214.506507,91.7682929 212.481167,90.045216 212.481167,87.2989931 C212.481167,84.3915315 214.606682,82.686534 217.294082,82.686534 C220.081244,82.686534 221.966423,84.4992699 221.966423,87.1554649 Z M224.191495,91.5708586 L224.191495,78.8274691 L225.956299,78.8274691 L225.956299,91.5708586 L224.191495,91.5708586 Z" id="Combined-Shape"></path>
            </g>
        </g>
    </g>
</svg>