<?xml version="1.0" encoding="UTF-8"?>
<svg width="80px" height="80px" viewBox="0 0 80 80" version="1.1" xmlns="http://www.w3.org/2000/svg" xmlns:xlink="http://www.w3.org/1999/xlink">
    <title>Icons/ChangeSize</title>
    <g id="Icons/ChangeSize" stroke="none" stroke-width="1" fill="#666666" fill-rule="evenodd">
        <path d="M40,80 C17.90861,80 0,62.09139 0,40 C0,17.90861 17.90861,0 40,0 C62.09139,0 80,17.90861 80,40 C80,62.09139 62.09139,80 40,80 Z M53.4088546,29.4155236 L53.4088546,34.5685753 L25.5911454,34.5685753 L25.5911454,29.4155236 C25.5911454,27.023319 22.6425244,25.8253147 20.9179044,27.5168189 L11.1018285,37.1450453 C10.0327238,38.1936906 10.0327238,39.8936975 11.1018285,40.9423428 L20.9179044,50.5705692 C22.6424103,52.2620734 25.5911454,51.0640691 25.5911454,48.6718645 L25.5911454,43.5189247 L53.4088546,43.5189247 L53.4088546,48.6719764 C53.4088546,51.064181 56.3574756,52.2621853 58.0820956,50.5706811 L67.8981715,40.9424547 C68.9672762,39.8938094 68.9672762,38.1938025 67.8981715,37.1451572 L58.0820956,27.5169308 C56.3575897,25.8253147 53.4088546,27.023319 53.4088546,29.4155236 Z" id="Combined-Shape" fill="#666666" fill-rule="nonzero"></path>
    </g>
</svg>
