<svg width="16" height="16" viewBox="0 0 16 16" fill="none" xmlns="http://www.w3.org/2000/svg">
<circle cx="8" cy="8" r="8" fill="#C22530"/>
<path d="M9.16504 9.47266H6.90918L6.56055 3.00586H9.51367L9.16504 9.47266ZM6.58789 11.8652C6.58789 11.4505 6.71094 11.1292 6.95703 10.9014C7.20312 10.6689 7.56087 10.5527 8.03027 10.5527C8.49512 10.5527 8.84603 10.6689 9.08301 10.9014C9.32454 11.1292 9.44531 11.4505 9.44531 11.8652C9.44531 12.2754 9.31999 12.5967 9.06934 12.8291C8.82324 13.057 8.47689 13.1709 8.03027 13.1709C7.5791 13.1709 7.22591 13.057 6.9707 12.8291C6.71549 12.5967 6.58789 12.2754 6.58789 11.8652Z" fill="white"/>
</svg>
